<svg width="121" height="110" viewBox="0 0 105 94" fill="none" xmlns="http://www.w3.org/2000/svg">
<path d="M96.25 5.875H8.75C3.91927 5.875 0 9.82227 0 14.6875V79.3125C0 84.1777 3.91927 88.125 8.75 88.125H96.25C101.081 88.125 105 84.1777 105 79.3125V14.6875C105 9.82227 101.081 5.875 96.25 5.875ZM32.0833 23.5C38.5182 23.5 43.75 28.7691 43.75 35.25C43.75 41.7309 38.5182 47 32.0833 47C25.6484 47 20.4167 41.7309 20.4167 35.25C20.4167 28.7691 25.6484 23.5 32.0833 23.5ZM52.5 66.975C52.5 68.9211 50.6771 70.5 48.4167 70.5H15.75C13.4896 70.5 11.6667 68.9211 11.6667 66.975V63.45C11.6667 57.6117 17.1536 52.875 23.9167 52.875H24.8281C27.0703 53.8113 29.513 54.3438 32.0833 54.3438C34.6536 54.3438 37.1146 53.8113 39.3385 52.875H40.25C47.013 52.875 52.5 57.6117 52.5 63.45V66.975ZM93.3333 57.2812C93.3333 58.0891 92.6771 58.75 91.875 58.75H65.625C64.8229 58.75 64.1667 58.0891 64.1667 57.2812V54.3438C64.1667 53.5359 64.8229 52.875 65.625 52.875H91.875C92.6771 52.875 93.3333 53.5359 93.3333 54.3438V57.2812ZM93.3333 45.5312C93.3333 46.3391 92.6771 47 91.875 47H65.625C64.8229 47 64.1667 46.3391 64.1667 45.5312V42.5938C64.1667 41.7859 64.8229 41.125 65.625 41.125H91.875C92.6771 41.125 93.3333 41.7859 93.3333 42.5938V45.5312ZM93.3333 33.7812C93.3333 34.5891 92.6771 35.25 91.875 35.25H65.625C64.8229 35.25 64.1667 34.5891 64.1667 33.7812V30.8438C64.1667 30.0359 64.8229 29.375 65.625 29.375H91.875C92.6771 29.375 93.3333 30.0359 93.3333 30.8438V33.7812Z" fill="#F1F1F1"/>
</svg>
