<svg width="115" height="115" viewBox="0 0 102 102" fill="none" xmlns="http://www.w3.org/2000/svg">
<path d="M71.2522 17.9297H66.6005V24.9023C66.6005 29.845 62.5782 33.8672 57.6356 33.8672H19.0629C14.1203 33.8672 10.098 29.845 10.098 24.9023V17.9297H5.44629C3.79676 17.9297 2.45801 19.2684 2.45801 20.918V99.0117C2.45801 100.661 3.79676 102 5.44629 102H71.2522C72.9018 102 74.2405 100.661 74.2405 99.0117V20.918C74.2405 19.2684 72.9018 17.9297 71.2522 17.9297V17.9297ZM26.2846 85.0266L20.3857 90.9254C19.2211 92.0901 17.3281 92.0933 16.1603 90.9254L13.2935 88.0607C12.1281 86.8932 12.1281 85.0007 13.2935 83.8332C14.4609 82.6678 16.3535 82.6678 17.5209 83.8332L18.272 84.5863L22.0571 80.8011C23.2246 79.6337 25.1171 79.6337 26.2846 80.8011C27.452 81.9686 27.452 83.8591 26.2846 85.0266ZM26.2846 67.0969L20.3857 72.9957C19.2211 74.1604 17.3281 74.1636 16.1603 72.9957L13.2935 70.131C12.1281 68.9636 12.1281 67.071 13.2935 65.9036C14.4609 64.7381 16.3535 64.7381 17.5209 65.9036L18.272 66.6566L22.0571 62.8714C23.2246 61.704 25.1171 61.704 26.2846 62.8714C27.452 64.0389 27.452 65.9295 26.2846 67.0969ZM26.2846 49.1672L20.3857 55.0661C19.2211 56.2307 17.3281 56.2339 16.1603 55.0661L13.2935 52.2013C12.1281 51.0339 12.1281 49.1413 13.2935 47.9739C14.4609 46.8084 16.3535 46.8084 17.5209 47.9739L18.272 48.7269L22.0571 44.9418C23.2246 43.7743 25.1171 43.7743 26.2846 44.9418C27.452 46.1092 27.452 47.9998 26.2846 49.1672V49.1672ZM61.2913 88.8516H36.124C34.4745 88.8516 33.1357 87.5148 33.1357 85.8633C33.1357 84.2138 34.4745 82.875 36.124 82.875H61.2913C62.9408 82.875 64.2796 84.2138 64.2796 85.8633C64.2796 87.5148 62.9408 88.8516 61.2913 88.8516ZM61.2913 70.9219H36.124C34.4745 70.9219 33.1357 69.5851 33.1357 67.9336C33.1357 66.2841 34.4745 64.9453 36.124 64.9453H61.2913C62.9408 64.9453 64.2796 66.2841 64.2796 67.9336C64.2796 69.5851 62.9408 70.9219 61.2913 70.9219ZM61.2913 52.9922H36.124C34.4745 52.9922 33.1357 51.6554 33.1357 50.0039C33.1357 48.3544 34.4745 47.0156 36.124 47.0156H61.2913C62.9408 47.0156 64.2796 48.3544 64.2796 50.0039C64.2796 51.6554 62.9408 52.9922 61.2913 52.9922Z" fill="#F1F1F1"/>
<path d="M57.6352 11.9531H52.9915C51.583 5.01234 45.463 0 38.3489 0C31.2348 0 25.1148 5.01234 23.7063 11.9531H19.0625C17.413 11.9531 16.0742 13.2919 16.0742 14.9414V24.9023C16.0742 26.5519 17.413 27.8906 19.0625 27.8906H57.6352C59.2848 27.8906 60.6235 26.5519 60.6235 24.9023V14.9414C60.6235 13.2919 59.2848 11.9531 57.6352 11.9531ZM38.3489 17.9297C36.6993 17.9297 35.3606 16.5909 35.3606 14.9414C35.3606 13.2919 36.6993 11.9531 38.3489 11.9531C39.9984 11.9531 41.3372 13.2919 41.3372 14.9414C41.3372 16.5909 39.9984 17.9297 38.3489 17.9297Z" fill="#F1F1F1"/>
<path d="M82.8662 86.5625H99.4811C99.3556 87.6821 99.0348 88.7798 98.5308 89.7859L93.8472 100.348C92.7487 102.545 89.5998 102.548 88.5001 100.348L83.8165 89.7859C83.3125 88.7798 82.9917 87.6821 82.8662 86.5625V86.5625Z" fill="#F1F1F1"/>
<path d="M99.541 20.918V29.8828H82.8066V20.918C82.8066 19.2684 84.1454 17.9297 85.7949 17.9297H96.5527C98.2023 17.9297 99.541 19.2684 99.541 20.918Z" fill="#F1F1F1"/>
<path d="M82.8066 35.8594H99.541V80.586H82.8066V35.8594Z" fill="#F1F1F1"/>
</svg>
