<svg width="90" height="114" viewBox="0 0 70 94" fill="none" xmlns="http://www.w3.org/2000/svg">
<path d="M52.5 47H17.5V58.75H52.5V47ZM68.724 19.2773L50.8776 1.28516C50.0573 0.458984 48.9453 0 47.7786 0H46.6667V23.5H70V22.3801C70 21.2234 69.5443 20.1035 68.724 19.2773ZM40.8333 24.9688V0H4.375C1.95052 0 0 1.96445 0 4.40625V89.5938C0 92.0355 1.95052 94 4.375 94H65.625C68.0495 94 70 92.0355 70 89.5938V29.375H45.2083C42.8021 29.375 40.8333 27.3922 40.8333 24.9688ZM11.6667 13.2188C11.6667 12.4073 12.3193 11.75 13.125 11.75H27.7083C28.5141 11.75 29.1667 12.4073 29.1667 13.2188V16.1562C29.1667 16.9677 28.5141 17.625 27.7083 17.625H13.125C12.3193 17.625 11.6667 16.9677 11.6667 16.1562V13.2188ZM11.6667 24.9688C11.6667 24.1573 12.3193 23.5 13.125 23.5H27.7083C28.5141 23.5 29.1667 24.1573 29.1667 24.9688V27.9062C29.1667 28.7177 28.5141 29.375 27.7083 29.375H13.125C12.3193 29.375 11.6667 28.7177 11.6667 27.9062V24.9688ZM58.3333 80.7812C58.3333 81.5927 57.6807 82.25 56.875 82.25H42.2917C41.4859 82.25 40.8333 81.5927 40.8333 80.7812V77.8438C40.8333 77.0323 41.4859 76.375 42.2917 76.375H56.875C57.6807 76.375 58.3333 77.0323 58.3333 77.8438V80.7812ZM58.3333 44.0625V61.6875C58.3333 63.3105 57.0281 64.625 55.4167 64.625H14.5833C12.9719 64.625 11.6667 63.3105 11.6667 61.6875V44.0625C11.6667 42.4395 12.9719 41.125 14.5833 41.125H55.4167C57.0281 41.125 58.3333 42.4395 58.3333 44.0625Z" fill="#F1F1F1"/>
</svg>
