<svg width="104" height="83" viewBox="0 0 104 83" fill="none" xmlns="http://www.w3.org/2000/svg">
<path d="M70.6387 10.375H56.68C55.38 10.375 54.1288 10.8613 53.17 11.7367L37.1962 26.3266C37.18 26.3428 37.1637 26.3752 37.1475 26.3914C34.45 28.9203 34.4987 32.9568 36.8062 35.4695C38.87 37.7228 43.2087 38.3227 45.9225 35.9072C45.9387 35.891 45.9712 35.891 45.9875 35.8748L58.9712 24.0084C60.0275 23.052 61.685 23.1168 62.6437 24.1705C63.6187 25.2242 63.5375 26.8615 62.4812 27.8342L58.24 31.7086L81.9 50.8699C82.3712 51.259 82.7937 51.6805 83.1837 52.1182V20.75L74.3112 11.8988C73.3525 10.9262 72.02 10.375 70.6387 10.375V10.375ZM88.4 20.7824V57.0787C88.4 59.948 90.7237 62.2662 93.6 62.2662H104V20.7824H88.4ZM96.2 57.0787C94.77 57.0787 93.6 55.9115 93.6 54.485C93.6 53.0584 94.77 51.8912 96.2 51.8912C97.63 51.8912 98.8 53.0584 98.8 54.485C98.8 55.9115 97.63 57.0787 96.2 57.0787ZM0 62.25H10.4C13.2762 62.25 15.6 59.9318 15.6 57.0625V20.7824H0V62.25ZM7.8 51.8912C9.23 51.8912 10.4 53.0584 10.4 54.485C10.4 55.9115 9.23 57.0787 7.8 57.0787C6.37 57.0787 5.2 55.9115 5.2 54.485C5.2 53.0422 6.37 51.8912 7.8 51.8912ZM78.6337 54.9064L54.3725 35.2588L49.4975 39.7168C44.6712 44.11 37.2775 43.6885 32.9712 39.0035C28.6 34.2375 28.9412 26.8615 33.6862 22.517L46.9787 10.375H33.3612C31.98 10.375 30.6637 10.9262 29.6887 11.8988L20.8 20.75V57.0463H23.7737L38.48 70.323C42.9325 73.9381 49.4812 73.2572 53.105 68.8154L53.1375 68.783L56.0462 71.2957C58.63 73.4031 62.4487 72.9978 64.545 70.4203L69.6475 64.1629L70.525 64.8762C72.7512 66.6756 76.0337 66.3514 77.8375 64.1143L79.3812 62.2176C81.2012 59.9805 80.86 56.7221 78.6337 54.9064V54.9064Z" fill="#F1F1F1"/>
</svg>
