<svg width="106" height="106" viewBox="0 0 106 106" fill="none" xmlns="http://www.w3.org/2000/svg">
<g clip-path="url(#clip0)">
<path d="M0 97.1665H61.8333V106H0V97.1665Z" fill="#F1F1F1"/>
<path d="M52.9997 88.2614C52.9997 87.09 52.5344 85.9666 51.7061 85.1383C50.8778 84.3101 49.7544 83.8447 48.583 83.8447H13.2497C12.0783 83.8447 10.9549 84.3101 10.1266 85.1383C9.29833 85.9666 8.83301 87.09 8.83301 88.2614V92.7498H52.9997V88.2614Z" fill="#F1F1F1"/>
<path d="M60.0949 52.151C58.037 54.3443 56.3113 56.827 54.9727 59.5202L91.3262 95.8738C92.1545 96.7018 93.2777 97.1669 94.4488 97.1669C95.62 97.1669 96.7432 96.7018 97.5714 95.8738L103.818 89.6275C104.228 89.2174 104.553 88.7305 104.775 88.1946C104.997 87.6588 105.111 87.0844 105.111 86.5044C105.111 85.9244 104.997 85.35 104.775 84.8141C104.553 84.2783 104.228 83.7914 103.818 83.3812L67.4641 47.0376C64.7661 48.3645 62.2821 50.0881 60.0949 52.151V52.151Z" fill="#F1F1F1"/>
<path d="M38.2335 30.2896C34.8935 33.3892 31.0272 35.8679 26.8164 37.6091L49.6439 60.4367C51.4008 56.2331 53.882 52.3706 56.9745 49.0251C60.3148 45.9257 64.181 43.4467 68.3916 41.7045L45.5629 18.8813C43.8055 23.0833 41.3248 26.9445 38.2335 30.2896V30.2896Z" fill="#F1F1F1"/>
<path d="M53.8414 2.1884L47.5962 8.43357C45.8717 10.1581 45.8717 12.9542 47.5962 14.6787L72.5769 39.6594C74.3014 41.384 77.0975 41.384 78.8221 39.6594L85.0672 33.4142C86.7918 31.6897 86.7918 28.8936 85.0672 27.1691L60.0865 2.1884C58.362 0.463848 55.5659 0.463848 53.8414 2.1884Z" fill="#F1F1F1"/>
<path d="M16.3658 39.6581L10.1206 45.9033C8.39607 47.6279 8.39607 50.4239 10.1206 52.1485L35.1013 77.1291C36.8258 78.8537 39.6219 78.8537 41.3465 77.1291L47.5916 70.884C49.3162 69.1594 49.3162 66.3634 47.5916 64.6388L22.611 39.6581C20.8864 37.9336 18.0903 37.9336 16.3658 39.6581Z" fill="#F1F1F1"/>
</g>
<defs>
<clipPath id="clip0">
<rect width="106" height="106" fill="white"/>
</clipPath>
</defs>
</svg>

