<svg width="101" height="105" viewBox="0 0 101 105" fill="none" xmlns="http://www.w3.org/2000/svg">
<path d="M11.25 48.75H18.75V56.25H11.25V48.75Z" fill="#F1F1F1"/>
<path d="M66.9141 11.25H67.5V7.5H61.875C61.5901 7.49999 61.3089 7.43505 61.0528 7.3101C60.7967 7.18515 60.5725 7.00349 60.3972 6.77891C60.2218 6.55432 60.1 6.29273 60.0408 6.014C59.9817 5.73527 59.9869 5.44674 60.056 5.17031L61.3486 0H51.1514L52.444 5.17031C52.5131 5.44674 52.5183 5.73527 52.4592 6.014C52.4 6.29273 52.2782 6.55432 52.1028 6.77891C51.9275 7.00349 51.7033 7.18515 51.4472 7.3101C51.1911 7.43505 50.9099 7.49999 50.625 7.5H45V11.25H66.9141Z" fill="#F1F1F1"/>
<path d="M22.5 88.125C22.5 88.6223 22.3025 89.0992 21.9508 89.4508C21.5992 89.8025 21.1223 90 20.625 90H9.375C8.87772 90 8.40081 89.8025 8.04918 89.4508C7.69754 89.0992 7.5 88.6223 7.5 88.125V78.75H0V105H30V78.75H22.5V88.125ZM26.25 101.25H22.5V97.5H26.25V101.25Z" fill="#F1F1F1"/>
<path d="M45 78.75H52.5V86.25H45V78.75Z" fill="#F1F1F1"/>
<path d="M82.5 13.125V49.2867L86.25 48.1648V11.25C86.2488 10.2558 85.8534 9.30266 85.1504 8.59965C84.4473 7.89665 83.4942 7.50118 82.5 7.5H71.25V11.25H80.625C81.1223 11.25 81.5992 11.4475 81.9508 11.7992C82.3025 12.1508 82.5 12.6277 82.5 13.125Z" fill="#F1F1F1"/>
<path d="M41.25 7.5H30C29.0058 7.50118 28.0527 7.89665 27.3497 8.59965C26.6466 9.30266 26.2512 10.2558 26.25 11.25V45H30V13.125C30 12.6277 30.1975 12.1508 30.5492 11.7992C30.9008 11.4475 31.3777 11.25 31.875 11.25H41.25V7.5Z" fill="#F1F1F1"/>
<path d="M22.5 58.125C22.5 58.6223 22.3025 59.0992 21.9508 59.4508C21.5992 59.8025 21.1223 60 20.625 60H9.375C8.87772 60 8.40081 59.8025 8.04918 59.4508C7.69754 59.0992 7.5 58.6223 7.5 58.125V48.75H0V75H30V48.75H22.5V58.125ZM26.25 71.25H22.5V67.5H26.25V71.25Z" fill="#F1F1F1"/>
<path d="M56.25 88.125C56.25 88.6223 56.0525 89.0992 55.7008 89.4508C55.3492 89.8025 54.8723 90 54.375 90H43.125C42.6277 90 42.1508 89.8025 41.7992 89.4508C41.4475 89.0992 41.25 88.6223 41.25 88.125V78.75H33.75V105H63.75V78.75H56.25V88.125ZM60 101.25H56.25V97.5H60V101.25Z" fill="#F1F1F1"/>
<path d="M41.25 22.5H45V26.25H41.25V22.5Z" fill="#F1F1F1"/>
<path d="M82.5 86.2498C82.5 86.7471 82.3025 87.224 81.9508 87.5756C81.5992 87.9273 81.1223 88.1248 80.625 88.1248H67.5V91.8748H82.5C83.4942 91.8736 84.4473 91.4782 85.1504 90.7752C85.8534 90.0722 86.2488 89.119 86.25 88.1248V59.9075L82.5 61.0294V86.2498Z" fill="#F1F1F1"/>
<path d="M45.2676 66.2983L49.3977 67.0197L57.9552 64.4592L56.8804 60.8667L48.3229 63.427L45.2676 66.2983Z" fill="#F1F1F1"/>
<path d="M100.528 49.764C100.458 49.5281 100.341 49.3084 100.186 49.1174C100.03 48.9265 99.8389 48.768 99.6222 48.6511C99.4055 48.5342 99.1679 48.4611 98.9229 48.436C98.678 48.4109 98.4305 48.4343 98.1946 48.5049L60.4717 59.7917L61.5465 63.3842L99.2694 52.0976C99.7458 51.9551 100.146 51.6291 100.382 51.1915C100.618 50.7539 100.671 50.2404 100.528 49.764V49.764Z" fill="#F1F1F1"/>
<path d="M67.5 84.375H78.75V62.1516L50.0475 70.7393C49.7686 70.8226 49.4741 70.8399 49.1873 70.7899L40.9273 69.3471C40.5843 69.2871 40.2647 69.1328 40.0045 68.9015C39.7442 68.6702 39.5535 68.3709 39.4538 68.0373C39.354 67.7037 39.3491 67.3489 39.4396 67.0126C39.5302 66.6764 39.7125 66.372 39.9663 66.1336L46.077 60.3914C46.2891 60.1922 46.5447 60.0449 46.8234 59.9613L78.75 50.4089V15H33.75V75H65.625C66.1223 75 66.5992 75.1975 66.9508 75.5492C67.3025 75.9008 67.5 76.3777 67.5 76.875V84.375ZM75 39.375H60V35.625H75V39.375ZM60 18.75H75V22.5H60V18.75ZM52.5 18.75H56.25V22.5H52.5V18.75ZM52.5 26.25H75V30H52.5V26.25ZM52.5 35.625H56.25V39.375H52.5V35.625ZM52.5 43.125H75V46.875H52.5V43.125ZM37.5 20.625C37.5 20.1277 37.6975 19.6508 38.0492 19.2992C38.4008 18.9475 38.8777 18.75 39.375 18.75H46.875C47.3723 18.75 47.8492 18.9475 48.2008 19.2992C48.5525 19.6508 48.75 20.1277 48.75 20.625V28.125C48.75 28.6223 48.5525 29.0992 48.2008 29.4508C47.8492 29.8025 47.3723 30 46.875 30H39.375C38.8777 30 38.4008 29.8025 38.0492 29.4508C37.6975 29.0992 37.5 28.6223 37.5 28.125V20.625ZM37.5 45V37.5C37.5 37.0027 37.6975 36.5258 38.0492 36.1742C38.4008 35.8225 38.8777 35.625 39.375 35.625H46.875C47.3723 35.625 47.8492 35.8225 48.2008 36.1742C48.5525 36.5258 48.75 37.0027 48.75 37.5V45C48.75 45.4973 48.5525 45.9742 48.2008 46.3258C47.8492 46.6775 47.3723 46.875 46.875 46.875H39.375C38.8777 46.875 38.4008 46.6775 38.0492 46.3258C37.6975 45.9742 37.5 45.4973 37.5 45Z" fill="#F1F1F1"/>
<path d="M41.25 39.375H45V43.125H41.25V39.375Z" fill="#F1F1F1"/>
<path d="M11.25 78.75H18.75V86.25H11.25V78.75Z" fill="#F1F1F1"/>
</svg>
