<svg width="102" height="102" viewBox="0 0 102 102" fill="none" xmlns="http://www.w3.org/2000/svg">
<path d="M80.8141 86.5293L78.5605 88.7829L82.8748 93.0971L93.5641 82.4079L91.3105 80.1543L82.8748 88.59L80.8141 86.5293Z" fill="#F1F1F1"/>
<path d="M21.1855 10.0293L12.7498 18.465L10.6891 16.4043L8.43555 18.6579L12.7498 22.9721L23.4391 12.2829L21.1855 10.0293Z" fill="#F1F1F1"/>
<path d="M51 31.875C43.97 31.875 38.25 37.595 38.25 44.625C38.25 51.655 43.97 57.375 51 57.375C58.03 57.375 63.75 51.655 63.75 44.625C63.75 37.595 58.03 31.875 51 31.875ZM51 54.1875C45.7263 54.1875 41.4375 49.8987 41.4375 44.625C41.4375 39.3513 45.7263 35.0625 51 35.0625C56.2737 35.0625 60.5625 39.3513 60.5625 44.625C60.5625 49.8987 56.2737 54.1875 51 54.1875Z" fill="#F1F1F1"/>
<path d="M51 38.25C47.4842 38.25 44.625 41.1092 44.625 44.625C44.625 48.1408 47.4842 51 51 51C54.5158 51 57.375 48.1408 57.375 44.625C57.375 41.1092 54.5158 38.25 51 38.25ZM51 47.8125C49.2421 47.8125 47.8125 46.3829 47.8125 44.625C47.8125 42.8671 49.2421 41.4375 51 41.4375C52.7579 41.4375 54.1875 42.8671 54.1875 44.625C54.1875 46.3829 52.7579 47.8125 51 47.8125Z" fill="#F1F1F1"/>
<path d="M68.4962 36.9383L69.8286 34.1525L61.4741 25.7948L58.6867 27.1272C58.4396 27.0172 58.1878 26.9137 57.936 26.8148L56.9096 23.9062H45.0904L44.064 26.8164C43.8122 26.9153 43.562 27.0188 43.3133 27.1288L40.5259 25.7964L32.1714 34.1541L33.5038 36.9399C33.3938 37.1902 33.2887 37.4404 33.1914 37.6906L30.2812 38.7154V50.533L33.1914 51.561C33.2903 51.8112 33.3938 52.0614 33.5038 52.3117L32.1714 55.0991L40.5259 63.4536L43.3133 62.1212C43.562 62.2312 43.8122 62.3363 44.064 62.4336L45.0904 65.3438H56.9096L57.936 62.4336C58.1862 62.3347 58.4364 62.2312 58.6867 62.1212L61.4741 63.4536L69.8286 55.0991L68.4962 52.3117C68.6062 52.0614 68.7113 51.8112 68.8086 51.561L71.7188 50.5346V38.717L68.8086 37.689C68.7097 37.4388 68.6062 37.1886 68.4962 36.9383V36.9383ZM68.5312 48.2779L66.3112 49.0604L66.0625 49.7903C65.8553 50.396 65.6003 51.0096 65.3023 51.6168L64.9612 52.3101L65.9797 54.4361L60.8127 59.6031L58.6851 58.5847L57.9902 58.9257C57.3878 59.2222 56.7742 59.4788 56.1653 59.6859L55.4338 59.9346L54.6529 62.1562H47.3471L46.5646 59.9362L45.8331 59.6875C45.2242 59.4803 44.6107 59.2237 44.0082 58.9273L43.3133 58.5862L41.1857 59.6047L36.0188 54.4377L37.0372 52.3117L36.6961 51.6184C36.3981 51.0112 36.1431 50.3976 35.9359 49.7919L35.6873 49.062L33.4688 48.2779V40.9705L35.6888 40.188L35.9375 39.4581C36.1447 38.8524 36.3997 38.2388 36.6977 37.6316L37.0387 36.9383L36.0203 34.8123L41.1873 29.6453L43.3149 30.6622L44.0098 30.3211C44.6075 30.0262 45.2227 29.7713 45.8363 29.5609L46.5662 29.3107L47.3471 27.0938H54.6529L55.4354 29.3123L56.1653 29.5625C56.7789 29.7728 57.3941 30.0278 57.9918 30.3227L58.6867 30.6637L60.8143 29.6469L65.9813 34.8139L64.9628 36.9399L65.3039 37.6332C65.6019 38.2404 65.8569 38.854 66.0641 39.4597L66.3128 40.1896L68.5312 40.9721V48.2779Z" fill="#F1F1F1"/>
<path d="M7.96875 84.4688H27.0938V87.6562H7.96875V84.4688Z" fill="#F1F1F1"/>
<path d="M23.9062 90.8438H27.0938V94.0312H23.9062V90.8438Z" fill="#F1F1F1"/>
<path d="M7.96875 90.8438H20.7188V94.0312H7.96875V90.8438Z" fill="#F1F1F1"/>
<path d="M80.3473 23.9062H82.875H100.406V1.59375H90.8438V4.78125H84.4688V7.96875H78.0938V21.6527L73.2105 26.5343C72.2622 25.3693 71.2502 24.2489 70.117 23.2353C63.954 17.7225 56.0012 15.1868 47.7009 16.1224C34.7039 17.5759 24.1182 28.0468 22.534 41.0215C22.4512 41.6941 22.397 42.3635 22.3603 43.0312H19.125C18.2453 43.0312 17.5312 42.3157 17.5312 41.4375V30.1872C24.692 29.3903 30.2812 23.307 30.2812 15.9375C30.2812 8.02931 23.8473 1.59375 15.9375 1.59375C8.02772 1.59375 1.59375 8.02931 1.59375 15.9375C1.59375 23.307 7.18303 29.3919 14.3438 30.1872V41.4375C14.3438 44.0736 16.4889 46.2188 19.125 46.2188H22.3762C22.5595 49.5561 23.3086 52.7834 24.5693 55.7812H17.5312C14.8952 55.7812 12.75 57.9264 12.75 60.5625V78.0938H6.375C3.73894 78.0938 1.59375 80.2389 1.59375 82.875V95.625C1.59375 98.2611 3.73894 100.406 6.375 100.406H28.6875C31.3236 100.406 33.4688 98.2611 33.4688 95.625V82.875C33.4688 80.2389 31.3236 78.0938 28.6875 78.0938V75.2824C28.6875 73.3173 27.089 71.7188 25.1239 71.7188C23.766 71.7188 22.5468 72.4742 21.9364 73.6886L19.7338 78.0938H15.9375V60.5625C15.9375 59.6828 16.6515 58.9688 17.5312 58.9688H26.1375C28.4819 63.0344 31.8367 66.5295 36.0156 69.0859C34.5015 69.8891 33.4688 71.4829 33.4688 73.3125C33.4688 75.5167 34.9748 77.359 37.0069 77.9089C36.7853 78.4603 36.6562 79.058 36.6562 79.6875C36.6562 81.8917 38.1623 83.734 40.1944 84.2839C39.9728 84.8353 39.8438 85.433 39.8438 86.0625C39.8438 88.1376 41.1809 89.8907 43.0312 90.5505V92.4375C43.0312 96.8315 46.606 100.406 51 100.406C55.394 100.406 58.9688 96.8315 58.9688 92.4375V90.5505C60.8191 89.8907 62.1562 88.1376 62.1562 86.0625C62.1562 85.433 62.0272 84.8353 61.8056 84.2839C63.8377 83.7324 65.3438 81.8917 65.3438 79.6875C65.3438 79.058 65.2147 78.4603 64.9931 77.9089C67.0252 77.3574 68.5312 75.5167 68.5312 73.3125C68.5312 71.4829 67.4985 69.8891 65.9813 69.0859C74.0249 64.1564 79.1153 55.6267 79.6349 46.2188H82.875C83.7547 46.2188 84.4688 46.9343 84.4688 47.8125V71.8128C77.308 72.6081 71.7188 78.6914 71.7188 86.0625C71.7188 93.9723 78.1527 100.406 86.0625 100.406C93.9723 100.406 100.406 93.9723 100.406 86.0625C100.406 78.6914 94.817 72.6081 87.6562 71.8128V47.8125C87.6562 45.1764 85.5111 43.0312 82.875 43.0312H79.603C79.3241 38.0603 77.7607 33.2887 75.1055 29.1481L80.3473 23.9062ZM94.0312 4.78125H97.2188V20.7188H94.0312V4.78125ZM90.8438 7.96875V20.7188H87.6562V7.96875H90.8438ZM81.2812 11.1562H84.4688V20.7188H82.875H81.2812V11.1562ZM4.78125 15.9375C4.78125 9.78563 9.78722 4.78125 15.9375 4.78125C22.0878 4.78125 27.0938 9.78563 27.0938 15.9375C27.0938 22.0894 22.0878 27.0938 15.9375 27.0938C9.78722 27.0938 4.78125 22.0894 4.78125 15.9375ZM21.7037 81.2812L24.786 75.1166C24.9454 74.8011 25.5 74.9333 25.5 75.2824V81.2812H28.6875C29.5672 81.2812 30.2812 81.9953 30.2812 82.875V95.625C30.2812 96.5047 29.5672 97.2188 28.6875 97.2188H6.375C5.49525 97.2188 4.78125 96.5047 4.78125 95.625V82.875C4.78125 81.9953 5.49525 81.2812 6.375 81.2812H21.7037ZM97.2188 86.0625C97.2188 92.2128 92.2128 97.2188 86.0625 97.2188C79.9122 97.2188 74.9062 92.2128 74.9062 86.0625C74.9062 79.9122 79.9122 74.9062 86.0625 74.9062C92.2128 74.9062 97.2188 79.9122 97.2188 86.0625ZM51 97.2188C48.3639 97.2188 46.2188 95.0736 46.2188 92.4375V90.8438H55.7812V92.4375C55.7812 95.0736 53.6361 97.2188 51 97.2188ZM57.375 87.6562H44.625C43.7453 87.6562 43.0312 86.9422 43.0312 86.0625C43.0312 85.1828 43.7453 84.4688 44.625 84.4688H57.375C58.2547 84.4688 58.9688 85.1828 58.9688 86.0625C58.9688 86.9422 58.2547 87.6562 57.375 87.6562ZM60.5625 81.2812H57.375H44.625H41.4375C40.5578 81.2812 39.8438 80.5672 39.8438 79.6875C39.8438 78.8078 40.5578 78.0938 41.4375 78.0938H60.5625C61.4422 78.0938 62.1562 78.8078 62.1562 79.6875C62.1562 80.5672 61.4422 81.2812 60.5625 81.2812ZM62.9977 67.1224L62.1562 67.5718V71.7188H63.75C64.6297 71.7188 65.3438 72.4328 65.3438 73.3125C65.3438 74.1922 64.6297 74.9062 63.75 74.9062H60.5625H41.4375H38.25C37.3703 74.9062 36.6562 74.1922 36.6562 73.3125C36.6562 72.4328 37.3703 71.7188 38.25 71.7188H39.8438V67.5718L39.0023 67.1224C29.623 62.1084 24.4019 52.0152 25.696 41.4072C27.1049 29.8828 36.508 20.5817 48.0548 19.2908C55.4434 18.4716 62.5148 20.7124 67.9926 25.6116C73.4002 30.447 76.5 37.3766 76.5 44.625C76.5 54.0504 71.3267 62.671 62.9977 67.1224Z" fill="#F1F1F1"/>
</svg>
