<svg width="103" height="103" viewBox="0 0 103 103" fill="none" xmlns="http://www.w3.org/2000/svg">
<g clip-path="url(#clip0)">
<path d="M80.4688 0C68.0444 0 57.9375 10.1069 57.9375 22.5312C57.9375 34.093 76.014 54.5707 78.074 56.8689C78.6856 57.5448 79.5546 57.9375 80.4688 57.9375C81.3829 57.9375 82.2519 57.5448 82.8635 56.8689C84.9235 54.5707 103 34.093 103 22.5312C103 10.1069 92.8931 0 80.4688 0ZM80.4688 32.1875C75.1385 32.1875 70.8125 27.8615 70.8125 22.5312C70.8125 17.201 75.1385 12.875 80.4688 12.875C85.799 12.875 90.125 17.201 90.125 22.5312C90.125 27.8615 85.799 32.1875 80.4688 32.1875Z" fill="#F1F1F1"/>
<path d="M2.02138 37.8139C0.804688 38.3031 0 39.4876 0 40.8073V99.7812C0 100.85 0.534313 101.848 1.41625 102.446C1.957 102.807 2.58144 103 3.21875 103C3.62431 103 4.02987 102.923 4.41612 102.768L32.1875 91.6571V25.75L2.02138 37.8139Z" fill="#F1F1F1"/>
<path d="M87.653 61.169C85.8248 63.2033 83.2047 64.3749 80.4688 64.3749C77.7328 64.3749 75.1127 63.2033 73.2845 61.169C72.6279 60.4416 71.7846 59.4824 70.8125 58.343V103L100.979 90.936C102.202 90.4532 103 89.2623 103 87.949V40.627C97.7277 49.5558 90.6786 57.7958 87.653 61.169Z" fill="#F1F1F1"/>
<path d="M53.5278 31.7111L38.625 25.75V91.6571L64.375 101.957V50.264C60.2614 44.7213 55.9676 38.0456 53.5278 31.7111Z" fill="#F1F1F1"/>
</g>
<defs>
<clipPath id="clip0">
<rect width="103" height="103" fill="white"/>
</clipPath>
</defs>
</svg>
