<svg width="108" height="108" viewBox="0 0 108 108" fill="none" xmlns="http://www.w3.org/2000/svg">
<path d="M92.1839 15.8161C81.9847 5.61684 68.4239 0 54 0C39.5761 0 26.0153 5.61684 15.8161 15.8161C5.61684 26.0153 0 39.5761 0 54C0 68.4239 5.61706 81.9844 15.8161 92.1839C26.0151 102.383 39.5761 108 54 108C68.4239 108 81.9847 102.383 92.1839 92.1839C102.383 81.9847 108 68.4239 108 54C108 39.5761 102.383 26.0156 92.1839 15.8161V15.8161ZM54 50.625C62.3744 50.625 69.1875 57.4381 69.1875 65.8125C69.1875 72.7475 64.5138 78.6078 58.1517 80.4184C57.6946 80.5486 57.375 80.9597 57.375 81.435V84.2797C57.375 86.0971 55.9784 87.6608 54.1631 87.7462C52.2248 87.8373 50.625 86.2931 50.625 84.375V81.4343C50.625 80.9603 50.3073 80.549 49.8515 80.4193C43.5166 78.6179 38.8549 72.8017 38.8127 65.9068C38.8015 64.0664 40.2486 62.4917 42.0884 62.439C43.9976 62.3841 45.5625 63.9155 45.5625 65.8125C45.5625 70.6645 49.6794 74.5732 54.6031 74.2289C58.7594 73.9384 62.1262 70.5715 62.4164 66.4151C62.7602 61.4912 58.8518 57.375 54 57.375C45.6256 57.375 38.8125 50.5619 38.8125 42.1875C38.8125 35.2525 43.4862 29.3922 49.8483 27.5816C50.3054 27.4514 50.625 27.0403 50.625 26.565V23.7203C50.625 21.9029 52.0216 20.3392 53.8369 20.2538C55.7753 20.1627 57.375 21.7069 57.375 23.625V26.5657C57.375 27.0397 57.6927 27.451 58.1485 27.5807C64.4834 29.3821 69.1451 35.1983 69.1873 42.0932C69.1985 43.9336 67.7514 45.5083 65.9116 45.561C64.0024 45.6159 62.4375 44.0845 62.4375 42.1875C62.4375 37.3355 58.3206 33.4268 53.3969 33.7711C49.2406 34.0616 45.8738 37.4285 45.5836 41.5849C45.2398 46.5088 49.1482 50.625 54 50.625V50.625Z" fill="#F1F1F1"/>
</svg>
