<svg width="113" height="113" viewBox="0 0 113 113" fill="none" xmlns="http://www.w3.org/2000/svg">
<g clip-path="url(#clip0)">
<path d="M57.4349 60.0313H60.9141V41.9336H52.0859V56.709C53.9674 57.6346 55.7615 58.7454 57.4349 60.0313Z" fill="#F1F1F1"/>
<path d="M27.8285 33.8496L28.9122 32.8644V54.7266C31.8365 53.8617 34.8859 53.4099 37.961 53.4099C40.4984 53.4099 43.0182 53.7175 45.4649 54.3106V38.623C45.4649 36.7947 46.9471 35.3124 48.7754 35.3124H64.2247C66.053 35.3124 67.5352 36.7947 67.5352 38.623V60.0312H80.7774C82.6057 60.0312 84.0879 58.549 84.0879 56.7206V32.8644L85.1716 33.8496C85.8059 34.4263 86.6028 34.7106 87.3976 34.7106C88.2976 34.7106 89.195 34.3455 89.8481 33.6269C91.078 32.274 90.9783 30.1802 89.6254 28.9505L58.7269 0.860908C57.4643 -0.286969 55.5358 -0.286969 54.2732 0.860908L23.3747 28.9505C22.0218 30.1804 21.922 32.2742 23.152 33.6269C24.382 34.9796 26.4758 35.0794 27.8285 33.8496V33.8496ZM60.9141 28.6914H52.086C50.2577 28.6914 48.7754 27.2091 48.7754 25.3808C48.7754 23.5525 50.2577 22.0703 52.086 22.0703H60.9141C62.7424 22.0703 64.2247 23.5525 64.2247 25.3808C64.2247 27.2091 62.7424 28.6914 60.9141 28.6914Z" fill="#F1F1F1"/>
<path d="M10.373 60.0312H3.31055C1.48224 60.0312 0 61.5135 0 63.3418V109.689C0 111.518 1.48224 113 3.31055 113H10.373C12.2014 113 13.6836 111.518 13.6836 109.689V63.3418C13.6836 61.5135 12.2014 60.0312 10.373 60.0312Z" fill="#F1F1F1"/>
<path d="M107.259 62.133C103.771 60.8322 99.9425 61.809 97.5044 64.6219C97.4961 64.6316 97.4877 64.6413 97.4795 64.651L90.359 73.0622C90.7277 74.3578 90.9297 75.7232 90.9297 77.1355C90.9297 85.3501 84.2468 92.033 76.0322 92.033H56.7207C54.8924 92.033 53.4102 90.5507 53.4102 88.7224C53.4102 86.8941 54.8924 85.4119 56.7207 85.4119H76.0322C80.5959 85.4119 84.3086 81.6992 84.3086 77.1355C84.3086 72.5718 80.5959 68.8594 76.0322 68.8594H57.882L53.7854 65.5822C49.311 62.0026 43.6911 60.0312 37.9609 60.0312C32.2308 60.0312 26.6108 62.0026 22.1365 65.5822L20.3047 67.0476V106.379H80.8045C86.1384 106.379 91.1736 103.788 94.274 99.4473L111.356 75.5328C112.431 74.0274 113 72.2533 113 70.4025C113 66.6799 110.746 63.4341 107.259 62.133Z" fill="#F1F1F1"/>
</g>
<defs>
<clipPath id="clip0">
<rect width="113" height="113" fill="white"/>
</clipPath>
</defs>
</svg>
