<svg width="97" height="97" viewBox="0 0 97 97" fill="none" xmlns="http://www.w3.org/2000/svg">
<g clip-path="url(#clip0)">
<path d="M26.0098 64.4326V66.3088L35.0484 77.8126L44.0872 66.3088V64.4326C41.3153 65.6385 38.2589 66.3088 35.0484 66.3088C31.8379 66.3088 28.7815 65.6385 26.0098 64.4326Z" fill="#F1F1F1"/>
<path d="M52.0996 43.5745V35.7899C51.1542 35.9263 50.2026 35.9964 49.2578 35.9964C43.1398 35.9964 37.5367 33.1633 33.9398 28.4182H21.7871C20.4916 28.4182 19.2251 28.2923 17.998 28.0547V43.5745C17.998 52.9915 25.6319 60.6253 35.0488 60.6253C44.4658 60.6253 52.0996 52.9915 52.0996 43.5745Z" fill="#F1F1F1"/>
<path d="M21.7871 22.7345H37.0815L37.1197 22.8108C39.8509 28.2733 45.8395 31.293 52.0996 30.025V17.9982C52.0996 11.197 46.5861 5.6837 39.7852 5.6837H27.4707C21.973 5.6837 16.5232 3.86703 12.125 0.568462C11.1323 -0.176467 9.75229 -0.200338 8.72204 0.5624C7.98223 1.1103 7.57812 2.00319 7.57812 2.92374V8.52549C7.57812 16.373 13.9398 22.7345 21.7871 22.7345Z" fill="#F1F1F1"/>
<path d="M78.8711 78.8767V84.9621C79.9368 84.3517 80.5731 83.2722 80.7457 82.2456C80.8702 81.5052 80.9212 79.7404 78.8711 78.8767Z" fill="#F1F1F1"/>
<path d="M74.0755 70.8291C73.9241 71.6321 74.1158 72.3782 74.5639 72.7295C74.7217 72.8532 74.8956 72.9748 75.082 73.0943V69.1323C74.5038 69.5758 74.1852 70.2471 74.0755 70.8291Z" fill="#F1F1F1"/>
<path d="M51.5312 77.1074C51.5312 73.9773 52.0977 70.9773 53.1317 68.2031H49.8269L37.2832 84.1678C36.7446 84.8536 35.9209 85.2539 35.0488 85.2539C34.1768 85.2539 33.353 84.8536 32.8142 84.1678L20.2705 68.2031H16.1035C7.20983 68.2031 0 75.413 0 84.3066V94.1582C0 95.7276 1.27237 97 2.8418 97H61.0515C55.2489 92.3074 51.5312 85.134 51.5312 77.1074Z" fill="#F1F1F1"/>
<path d="M77.1074 57.2148C66.121 57.2148 57.2148 66.121 57.2148 77.1074C57.2148 88.0938 66.121 97 77.1074 97C88.0938 97 97 88.0938 97 77.1074C97 66.121 88.0938 57.2148 77.1074 57.2148ZM84.4825 82.8736C84.0367 85.5248 82.019 88.2139 78.871 89.0123V90.3691C78.871 91.4155 78.0229 92.2637 76.9765 92.2637C75.9302 92.2637 75.082 91.4155 75.082 90.3691V89.194C73.5523 89.0617 72.2843 88.6487 70.487 87.4728C69.6113 86.9001 69.3658 85.7258 69.9385 84.8502C70.5114 83.9743 71.6857 83.7292 72.5611 84.3017C73.5843 84.9712 74.2258 85.2628 75.082 85.3835V77.3808C73.8718 76.8261 72.9673 76.2926 72.2252 75.7106C70.6531 74.4774 69.9353 72.3379 70.3519 70.127C70.8058 67.7176 72.4831 65.8007 74.7286 65.1241C74.8476 65.0883 74.9653 65.0555 75.082 65.0245V63.8457C75.082 62.7994 75.9302 61.9512 76.9765 61.9512C78.0229 61.9512 78.871 62.7994 78.871 63.8457V64.817C80.7103 65.1355 82.0105 66.0411 82.64 66.7637C83.3274 67.5525 83.2451 68.7493 82.4563 69.4367C81.6713 70.1204 80.4833 70.0425 79.7942 69.2654C79.7514 69.222 79.4502 68.9318 78.871 68.7182V74.8399C79.2073 74.9647 79.5432 75.0858 79.8732 75.2025C83.2036 76.3797 85.0559 79.4625 84.4825 82.8736V82.8736Z" fill="#F1F1F1"/>
<path d="M63.4668 35.9963C63.4668 32.8573 60.9223 30.3127 57.7832 30.3127V41.6799C60.9223 41.6799 63.4668 39.1354 63.4668 35.9963Z" fill="#F1F1F1"/>
<path d="M12.3145 41.6799V30.3127C9.1754 30.3127 6.63086 32.8573 6.63086 35.9963C6.63086 39.1354 9.17559 41.6799 12.3145 41.6799Z" fill="#F1F1F1"/>
</g>
<defs>
<clipPath id="clip0">
<rect width="97" height="97" fill="white"/>
</clipPath>
</defs>
</svg>
