<svg width="97" height="97" viewBox="0 0 97 97" fill="none" xmlns="http://www.w3.org/2000/svg">
<g clip-path="url(#clip0)">
<path d="M45.4172 87.058C42.2837 87.0546 39.5408 84.9545 38.7204 81.93C38.6925 81.8252 38.6925 81.7211 38.6705 81.6154L19.5907 71.3054C19.074 71.0094 18.4887 70.8538 17.8933 70.8555C17.6708 70.8555 17.4484 70.8758 17.2293 70.9172C16.9291 70.9697 16.6373 71.0644 16.3633 71.198C15.7399 71.494 15.2206 71.9727 14.8755 72.5716C14.5736 73.0993 14.4138 73.6956 14.4112 74.3037C14.4028 75.5428 15.0599 76.6913 16.1332 77.3104L47.7118 96.2067C48.539 96.7243 49.4956 96.9992 50.4716 97H74.8772C75.5293 96.9992 76.1755 96.8757 76.7827 96.6363L83.1429 94.1244V75.4641L76.9502 71.7562C76.1442 71.2733 75.2214 71.0179 74.2809 71.0179H67.6416C66.5844 71.0179 65.5314 71.1566 64.5106 71.4298L44.5165 76.7793C43.1134 77.1683 42.0976 78.3846 41.9648 79.8342V80.4009C41.9766 80.6174 42.0096 80.8322 42.0654 81.042C42.4773 82.5517 43.8517 83.5979 45.4172 83.5937C45.6278 83.5759 46.647 83.3678 47.437 83.186L65.3749 78.3862L66.2681 81.733L48.2717 86.548C47.3363 86.7991 46.3814 86.97 45.4172 87.058V87.058Z" fill="#F1F1F1"/>
<path d="M86.6074 69.2856H97.0003V96.9999H86.6074V69.2856Z" fill="#F1F1F1"/>
<path d="M0 0H10.3929V31.1786H0V0Z" fill="#F1F1F1"/>
<path d="M19.7677 27.2568C22.1316 28.8265 24.8795 29.7222 27.7146 29.8482V21.4785C26.4349 21.0116 25.239 20.34 24.1742 19.49L23.1592 18.6671L25.3413 15.9759L26.3461 16.7895C29.7783 19.5332 34.6719 19.4604 38.0212 16.6169L39.2331 15.5775L49.4526 25.797C50.8126 27.1502 53.0116 27.146 54.3657 25.7868C55.719 24.4268 55.7147 22.2278 54.3547 20.8746L42.1316 8.63793L44.5801 6.18942L48.7845 10.3929H63.078L56.2357 3.5506C53.9674 1.26956 50.8794 -0.0092531 47.6621 5.04101e-05H25.8852C25.0791 5.04101e-05 24.2841 0.188658 23.5627 0.548957L19.6789 2.49085C18.3806 3.13787 16.9411 3.44996 15.4906 3.39837L13.8574 3.34001V25.9822H17.841L19.7677 27.2568Z" fill="#F1F1F1"/>
<path d="M31.1787 22.2039V51.9641H97.0001V13.8569H52.2486L55.7129 17.3212H84.8751V19.0534C84.8751 22.8796 87.9774 25.9819 91.8037 25.9819H93.5358V39.8391H91.8037C87.9774 39.8391 84.8751 42.9414 84.8751 46.7676V48.4998H43.3037V46.7676C43.3037 42.9414 40.2014 39.8391 36.3751 39.8391H34.643V25.9819H36.3751C38.5708 25.9802 40.6353 24.9357 41.9369 23.1672L38.9818 20.2121C36.6686 21.7116 33.9275 22.4119 31.1787 22.2039Z" fill="#F1F1F1"/>
<path d="M51.9164 30.2591C50.0827 30.2634 48.3227 29.5419 47.021 28.2513L44.4076 25.6353C42.8218 27.5823 40.583 28.8856 38.1074 29.3026V36.5187C42.4657 37.2638 45.8792 40.6774 46.6244 45.0356H81.5548C82.2999 40.6774 85.7134 37.2638 90.0717 36.5187V29.3026C85.7134 28.5575 82.2999 25.1439 81.5548 20.7856H58.3595C59.1875 22.8282 58.976 25.1456 57.7919 27.0038C60.9687 23.6393 66.2302 23.3669 69.7376 26.3864C73.2459 29.4058 73.7601 34.6487 70.9057 38.2915C68.052 41.935 62.8378 42.6903 59.0665 40.0067C55.2961 37.3239 54.3014 32.1503 56.8075 28.2597C55.5024 29.5419 53.7458 30.26 51.9164 30.2591Z" fill="#F1F1F1"/>
<path d="M69.2854 32.9108C69.2854 35.7805 66.9587 38.1072 64.089 38.1072C61.2193 38.1072 58.8926 35.7805 58.8926 32.9108C58.8926 30.0411 61.2193 27.7144 64.089 27.7144C66.9587 27.7144 69.2854 30.0411 69.2854 32.9108Z" fill="#F1F1F1"/>
</g>
<defs>
<clipPath id="clip0">
<rect width="97" height="97" fill="white"/>
</clipPath>
</defs>
</svg>
