<svg width="97" height="97" viewBox="0 0 97 97" fill="none" xmlns="http://www.w3.org/2000/svg">
<path d="M78.1227 56.4026H18.207V97H78.1227V56.4026Z" fill="#F1F1F1"/>
<path d="M83.7889 48.6753C85.9551 34.338 74.4011 27.2276 70.0434 24.5554C69.8613 24.4434 69.6666 24.363 69.4759 24.2818C68.2564 23.4675 66.8871 22.8684 65.4887 22.5255L62.7628 25.2703L60.1188 22.4948C60.1094 22.4971 60.1007 22.4971 60.092 22.4995C58.6684 22.8408 57.2723 23.451 56.0331 24.2818C55.6997 24.4237 55.3741 24.594 55.0754 24.8281C46.0384 31.8896 42.0181 28.1011 41.5396 27.7676C39.9575 26.6482 37.8827 26.7823 36.4417 27.9363L29.6577 21.5488L31.0151 19.9226C31.5835 19.2415 31.8555 18.4122 31.8523 17.5893L27.6137 14.0522C26.8025 14.1957 26.0363 14.6127 25.4671 15.2938L21.5304 20.014C20.9912 20.6589 20.7193 21.4353 20.6948 22.2141L25.062 25.8576C25.8235 25.6936 26.5384 25.2877 27.076 24.6436L28.5005 22.9362L35.2435 29.3237L35.3602 29.2409C34.3599 31.1044 34.8651 33.4574 36.6357 34.7092C37.1078 35.0435 46.0313 39.841 51.5604 35.7238V48.6745H29.474C30.1961 48.6745 30.7818 48.0888 30.7818 47.3659C30.7818 46.6431 30.1961 46.0566 29.474 46.0566H29.3715C29.3715 44.7709 28.3279 43.728 27.0429 43.728H17.4408C16.1551 43.728 15.1122 44.7709 15.1122 46.0566H15.0097C14.2868 46.0566 13.7019 46.6431 13.7019 47.3659C13.7019 48.0888 14.2868 48.6745 15.0097 48.6745H10.2744V53.4294H86.726V48.6745L83.7889 48.6753ZM62.7383 25.6779H62.7888L65.4296 43.3228L62.7888 46.9355H62.7383L60.0983 43.3228L62.7383 25.6779ZM73.9675 39.3515C75.3872 41.8251 75.9722 44.845 75.1334 48.6761H73.9675V39.3515Z" fill="#F1F1F1"/>
<path d="M62.7657 21.8907C68.8107 21.8907 73.7112 16.9903 73.7112 10.9453C73.7112 4.90039 68.8107 0 62.7657 0C56.7207 0 51.8203 4.90039 51.8203 10.9453C51.8203 16.9903 56.7207 21.8907 62.7657 21.8907Z" fill="#F1F1F1"/>
</svg>
